<?xml version="1.0" standalone="no"?>
<!DOCTYPE svg PUBLIC "-//W3C//DTD SVG 20010904//EN"
 "http://www.w3.org/TR/2001/REC-SVG-20010904/DTD/svg10.dtd">
<svg version="1.0" xmlns="http://www.w3.org/2000/svg"
 width="761.000000pt" height="761.000000pt" viewBox="0 0 761.000000 761.000000"
 preserveAspectRatio="xMidYMid meet">
<metadata>
Created by potrace 1.11, written by Peter Selinger 2001-2013
</metadata>
<g transform="translate(0.000000,761.000000) scale(0.100000,-0.100000)"
fill="#000000" stroke="none">
<path d="M52 6124 c-22 -10 -38 -57 -36 -104 2 -40 10 -88 30 -170 4 -14 7
-31 7 -37 0 -7 5 -13 10 -13 5 0 7 -6 4 -14 -3 -8 -3 -17 1 -21 4 -4 8 -11 8
-16 1 -5 3 -11 4 -14 1 -3 4 -9 5 -15 1 -5 4 -12 5 -15 1 -3 3 -8 5 -12 13
-47 71 -164 132 -265 29 -49 53 -93 53 -98 0 -6 5 -10 10 -10 6 0 10 -5 10
-11 0 -7 52 -89 115 -185 189 -284 249 -378 261 -404 14 -30 26 -64 24 -69 -1
-2 3 -7 8 -10 5 -3 29 -44 53 -91 51 -97 75 -168 84 -250 2 -14 4 -25 5 -25 1
0 3 -9 4 -20 2 -11 6 -47 11 -80 4 -33 9 -91 11 -130 1 -38 3 -70 4 -70 4 0
20 -588 23 -847 1 -98 4 -178 7 -178 3 0 5 -33 5 -73 -1 -39 1 -76 3 -80 2 -5
6 -32 9 -60 7 -93 27 -181 59 -269 8 -21 11 -38 8 -38 -4 0 -2 -6 3 -12 5 -7
18 -35 28 -63 25 -71 106 -239 116 -243 5 -2 9 -12 9 -23 0 -10 3 -19 8 -19 4
0 12 -10 17 -23 15 -31 59 -111 65 -117 3 -3 11 -17 19 -32 8 -15 21 -36 30
-46 9 -10 32 -38 51 -62 30 -40 63 -77 142 -160 51 -54 125 -96 188 -106 8 -2
42 -7 75 -13 57 -10 123 -17 245 -27 30 -2 164 -7 297 -9 l242 -5 68 36 c37
19 70 39 73 42 3 4 12 12 22 17 35 21 156 111 207 154 155 130 381 356 381
380 0 6 3 11 8 11 6 0 154 211 187 268 6 9 13 19 16 22 4 3 31 43 60 90 29 47
69 108 91 137 21 29 38 56 38 62 0 5 4 11 9 13 11 4 173 248 297 447 92 148
184 256 228 267 14 3 26 9 26 13 0 3 15 7 33 8 17 1 82 4 142 7 61 2 110 5
110 6 0 1 22 3 49 6 26 2 68 13 91 23 24 11 46 17 49 13 3 -3 6 -1 6 5 0 5 6
10 13 11 6 0 39 3 72 7 33 3 96 8 140 10 44 2 80 4 80 5 0 1 16 4 35 5 19 2
50 5 68 9 17 3 47 9 65 12 80 14 210 50 297 82 8 3 17 6 20 7 16 5 49 19 75
30 17 8 34 14 39 13 5 0 12 4 15 9 3 5 23 17 44 27 21 10 59 32 84 49 24 18
57 40 71 49 15 10 23 18 17 18 -18 0 74 49 102 53 70 12 153 55 240 125 100
80 198 150 343 244 69 45 129 88 133 95 4 7 14 13 22 13 7 0 15 3 17 8 2 4 23
23 48 42 54 42 124 112 165 165 26 35 151 182 165 195 26 25 84 108 115 165
21 39 65 115 98 170 94 157 203 391 254 542 42 128 46 146 48 253 2 63 -1 125
-6 137 -22 58 -182 78 -268 34 -47 -25 -47 -24 -106 -76 -22 -19 -43 -35 -47
-35 -4 0 -13 -6 -20 -13 -22 -20 -57 -41 -193 -112 -71 -37 -150 -79 -175 -93
-330 -185 -442 -238 -670 -315 -180 -61 -439 -159 -677 -256 -83 -34 -159 -63
-170 -65 -10 -2 -54 -14 -98 -26 -138 -37 -377 -93 -490 -114 -11 -2 -130 -29
-265 -60 -135 -30 -258 -58 -275 -61 -16 -2 -43 -7 -60 -10 -135 -24 -322 -49
-450 -60 -94 -8 -629 -10 -641 -2 -5 3 -39 8 -74 12 -36 3 -72 8 -80 10 -8 2
-31 7 -50 10 -61 10 -98 25 -254 104 -150 76 -330 143 -571 211 -106 30 -137
39 -180 56 -11 4 -22 8 -25 9 -23 6 -171 82 -240 123 -47 28 -101 61 -120 72
-19 11 -48 29 -65 40 -16 11 -41 25 -55 32 -24 12 -34 19 -63 43 -7 6 -32 26
-57 46 -25 20 -59 49 -77 65 -102 93 -108 98 -363 284 -100 73 -227 144 -279
155 -9 2 -52 18 -96 36 -67 26 -96 32 -180 35 -55 2 -106 1 -113 -2z"/>
</g>
</svg>
